{"accessors":[{"bufferView":0,"componentType":5125,"count":1841943,"max":[329551],"min":[0],"type":"SCALAR"},{"bufferView":1,"componentType":5126,"count":329552,"max":[47.0025634765625,6.608720779418945,53.342227935791016],"min":[-11.61356258392334,-1.5862799882888794,-39.065185546875],"type":"VEC3"},{"bufferView":2,"componentType":5126,"count":329552,"max":[0.9967148900032043,0.9999999403953552,0.9999011158943176],"min":[-0.9998023509979248,-0.9983220100402832,-0.9988349080085754],"type":"VEC3"},{"bufferView":3,"componentType":5126,"count":329552,"max":[0.9992679953575134,0.9992659999988973],"min":[0.0007319999858736992,0.0007339715957641602],"type":"VEC2"},{"bufferView":4,"componentType":5125,"count":1268514,"max":[225991],"min":[0],"type":"SCALAR"},{"bufferView":5,"componentType":5126,"count":225992,"max":[-10.396885871887207,13.486205101013184,53.55711364746094],"min":[-69.40769958496094,-0.4831419885158539,-39.0817985534668],"type":"VEC3"},{"bufferView":6,"componentType":5126,"count":225992,"max":[0.9999575018882751,0.9999999403953552,0.9992569088935852],"min":[-0.998500645160675,-0.9788753390312195,-0.9999817609786987],"type":"VEC3"},{"bufferView":7,"componentType":5126,"count":225992,"max":[0.9992679953575134,0.9992470000288449],"min":[0.0007319999858736992,0.0007529854774475098],"type":"VEC2"}],"asset":{"generator":"Soft8Soft Verge3D for Blender add-on","version":"2.0"},"bufferViews":[{"buffer":0,"byteLength":7367772,"byteOffset":0,"target":34963},{"buffer":0,"byteLength":3954624,"byteOffset":7367772,"target":34962},{"buffer":0,"byteLength":3954624,"byteOffset":11322396,"target":34962},{"buffer":0,"byteLength":2636416,"byteOffset":15277020,"target":34962},{"buffer":0,"byteLength":5074056,"byteOffset":17913436,"target":34963},{"buffer":0,"byteLength":2711904,"byteOffset":22987492,"target":34962},{"buffer":0,"byteLength":2711904,"byteOffset":25699396,"target":34962},{"buffer":0,"byteLength":1807936,"byteOffset":28411300,"target":34962}],"buffers":[{"byteLength":30219236,"uri":"ripples.bin"}],"cameras":[{"extensions":{"S8S_v3d_camera_data":{"controls":"ORBIT","enablePan":true,"moveSpeed":1.0,"orbitMaxDistance":100.0,"orbitMaxPolarAngle":3.1415927410125732,"orbitMinDistance":0.0,"orbitMinPolarAngle":0.0,"orbitTarget":[0.0,0.0,-0.0],"rotateSpeed":1.0,"viewportFitInitialAspect":1.7777777777777777,"viewportFitType":"AUTO"}},"name":"Camera","perspective":{"aspectRatio":1.7777777777777777,"yfov":0.39959652046304894,"zfar":100.0,"znear":0.10000000149011612},"type":"perspective"}],"extensions":{"S8S_v3d_data":{"lights":[{"color":[1.0,1.0,1.0],"intensity":15.0,"name":"Light","profile":"blender","shadow":{"bias":-0.0018,"cameraFar":100,"cameraFov":0,"cameraNear":0.1,"csm":{"maxDistance":1000.0},"enabled":true,"expBias":2.5,"mapSize":1024,"radius":1.0,"slopeScaledBias":2.5},"type":"directional"}]}},"extensionsUsed":["S8S_v3d_texture_data","S8S_v3d_material_data","S8S_v3d_camera_data","S8S_v3d_data","S8S_v3d_mesh_data","S8S_v3d_node_data","S8S_v3d_scene_data"],"images":[{"uri":"Ripples01.jpg"},{"uri":"Ripples02.jpg"}],"materials":[{"extensions":{"S8S_v3d_material_data":{"nodeGraph":{"edges":[{"fromNode":0,"fromOutput":0,"toInput":0,"toNode":1},{"fromNode":2,"fromOutput":0,"toInput":0,"toNode":0}],"nodes":[{"inputs":[[1.0,1.0,1.0,1.0],0.0,[1.0,0.20000000298023224,0.10000000149011612],[0.800000011920929,0.800000011920929,0.800000011920929,1.0],0.0,0.0,0.0,1.0,0.0,0.0,0.0,0.5,0.0,0.029999999329447746,1.4500000476837158,0.0,0.0,[0.0,0.0,0.0,1.0],1.0,[0.0,0.0,0.0],[0.0,0.0,0.0],[0.0,0.0,0.0]],"is_active_output":false,"name":"Principled BSDF","outputs":[[0,0,0,0]],"type":"BSDF_PRINCIPLED_BL"},{"inputs":[[0,0,0,0],[0,0,0,0],[0.0,0.0,0.0]],"is_active_output":true,"name":"Material Output","outputs":[],"type":"OUTPUT_MATERIAL_BL"},{"inputs":[[0.0,0.0,0.0]],"is_active_output":false,"name":"Image Texture","outputs":[[0.0,0.0,0.0,0.0],0.0],"projection":"FLAT","projectionBlend":0.0,"texture":0,"type":"TEX_IMAGE_BL"}]},"useCastShadows":true}},"name":"Material_0"},{"extensions":{"S8S_v3d_material_data":{"nodeGraph":{"edges":[{"fromNode":0,"fromOutput":0,"toInput":0,"toNode":1},{"fromNode":2,"fromOutput":0,"toInput":0,"toNode":0}],"nodes":[{"inputs":[[1.0,1.0,1.0,1.0],0.0,[1.0,0.20000000298023224,0.10000000149011612],[0.800000011920929,0.800000011920929,0.800000011920929,1.0],0.0,0.0,0.0,1.0,0.0,0.0,0.0,0.5,0.0,0.029999999329447746,1.4500000476837158,0.0,0.0,[0.0,0.0,0.0,1.0],1.0,[0.0,0.0,0.0],[0.0,0.0,0.0],[0.0,0.0,0.0]],"is_active_output":false,"name":"Principled BSDF","outputs":[[0,0,0,0]],"type":"BSDF_PRINCIPLED_BL"},{"inputs":[[0,0,0,0],[0,0,0,0],[0.0,0.0,0.0]],"is_active_output":true,"name":"Material Output","outputs":[],"type":"OUTPUT_MATERIAL_BL"},{"inputs":[[0.0,0.0,0.0]],"is_active_output":false,"name":"Image Texture","outputs":[[0.0,0.0,0.0,0.0],0.0],"projection":"FLAT","projectionBlend":0.0,"texture":1,"type":"TEX_IMAGE_BL"}]},"useCastShadows":true}},"name":"Material_1"},{"extensions":{"S8S_v3d_material_data":{"nodeGraph":{"edges":[{"fromNode":1,"fromOutput":0,"toInput":0,"toNode":0}],"nodes":[{"inputs":[[0,0,0,0],[0,0,0,0]],"is_active_output":true,"name":"World Output","outputs":[],"type":"OUTPUT_WORLD_BL"},{"inputs":[[0.05087608844041824,0.05087608844041824,0.05087608844041824,1.0],1.0],"is_active_output":false,"name":"Background","outputs":[[0,0,0,0]],"type":"BACKGROUND_BL"}]},"useCastShadows":true}},"name":"Verge3D_Environment_World"}],"meshes":[{"extensions":{"S8S_v3d_mesh_data":{"colorLayers":{},"uvLayers":{"UVMap":"TEXCOORD_0"}}},"name":"Ripples","primitives":[{"attributes":{"NORMAL":2,"POSITION":1,"TEXCOORD_0":3},"indices":0,"material":0,"mode":4},{"attributes":{"NORMAL":6,"POSITION":5,"TEXCOORD_0":7},"indices":4,"material":1,"mode":4}]}],"nodes":[{"extensions":{"S8S_v3d_node_data":{"frustumCulling":true,"groupNames":["Collection"],"hidden":false,"renderOrder":0,"useShadows":true}},"mesh":0,"name":"Ripples","rotation":[0.0021586401853710413,0.0,-0.0,0.9999976754188538]},{"camera":0,"extensions":{"S8S_v3d_node_data":{"frustumCulling":true,"groupNames":["Collection"],"hidden":false,"renderOrder":0}},"name":"Camera","rotation":[-0.2099730223417282,0.3857799768447876,0.09062845259904861,0.8937963247299194],"scale":[1.0,0.9999998807907104,0.9999998807907104],"translation":[7.358891487121582,4.958309173583984,6.925790786743164]},{"extensions":{"S8S_v3d_node_data":{"frustumCulling":true,"groupNames":["Collection"],"hidden":false,"light":0,"renderOrder":0}},"name":"Light","rotation":[0.04859467223286629,0.4195372760295868,0.3704814016819,0.8272669315338135],"scale":[1.0,0.9999998807907104,0.9999998211860657],"translation":[4.076245307922363,5.903861999511719,-1.0054539442062378]}],"samplers":[{}],"scene":0,"scenes":[{"extensions":{"S8S_v3d_scene_data":{"aaMethod":"AUTO","iblEnvironmentMode":"PMREM","physicallyCorrectLights":true,"pmremMaxTileSize":512,"shadowMap":{"esmDistanceScale":1.0,"renderReverseSided":false,"renderSingleSided":true,"type":"PCFPOISSON"},"toneMapping":{"type":"filmicBlender"},"worldMaterial":2}},"extras":{"animFrameRate":24,"coordSystem":"Z_UP_RIGHT"},"name":"Scene","nodes":[2,1,0]}],"textures":[{"extensions":{"S8S_v3d_texture_data":{"colorSpace":"srgb"}},"name":"Ripples01.jpg","sampler":0,"source":0},{"extensions":{"S8S_v3d_texture_data":{"colorSpace":"srgb"}},"name":"Ripples02.jpg","sampler":0,"source":1}]}
